<svg id="Layer_1" data-name="Layer 1" xmlns="http://www.w3.org/2000/svg" viewBox="0 0 100 99.32"><defs><style>.cls-1{fill:#fff;}</style></defs><title>facbook_logo</title><path class="cls-1" d="M480.77-89.89h3.89a.84.84,0,0,0,.59.21c.66.05,1.32.09,2,.16a45.29,45.29,0,0,1,8.47,1.72,49.23,49.23,0,0,1,17.85,9.62,50,50,0,0,1,11.27,13.46,49.63,49.63,0,0,1,5.09,12.61,55.59,55.59,0,0,1,1.42,9,14.48,14.48,0,0,0,.11,2.46V-39a14.32,14.32,0,0,0-.12,2.45,59.16,59.16,0,0,1-.76,5.94A49.34,49.34,0,0,1,524.2-14,50.07,50.07,0,0,1,510.43.81a49.58,49.58,0,0,1-20.56,8.58c-.53.09-.63,0-.62-.53q0-16.86,0-33.72c0-.5.15-.6.63-.6,3.5,0,7,0,10.5,0,.38,0,.54-.09.6-.49.68-4.45,1.35-8.89,2.06-13.33.09-.55-.06-.63-.56-.63-4.22,0-8.44,0-12.66,0-.3,0-.57.06-.56-.42,0-3.15,0-6.3,0-9.45a7.27,7.27,0,0,1,1.94-5.12,7.27,7.27,0,0,1,5.2-2.15c2.23-.08,4.48,0,6.72,0,.46,0,.59-.13.59-.59q0-5.58,0-11.17c0-.41-.12-.57-.54-.63-1.95-.25-3.89-.55-5.84-.7a32.39,32.39,0,0,0-10.71.48,16,16,0,0,0-10.85,8.54,21.2,21.2,0,0,0-2.15,9.38c-.05,3.76,0,7.52,0,11.28,0,.5-.13.61-.61.6-3.84,0-7.67,0-11.5,0-.49,0-.62.11-.62.61,0,4.29,0,8.59,0,12.88,0,.95,0,.95,1,.95,3.71,0,7.41,0,11.11,0,.54,0,.66.17.63.65s0,1,0,1.56V8.8c0,.68,0,.68-.65.57a49.89,49.89,0,0,1-8.26-2.15,49.53,49.53,0,0,1-15-8.52,50.12,50.12,0,0,1-10.92-12.57A49.68,49.68,0,0,1,433-27.68a56.37,56.37,0,0,1-1.41-8.86,21.78,21.78,0,0,0-.11-2.8v-1.22a20,20,0,0,0,.11-2.68c.17-1.86.35-3.72.69-5.56a50.54,50.54,0,0,1,4.52-13.52,50.22,50.22,0,0,1,7.83-11.33,49.74,49.74,0,0,1,11.75-9.47,50.05,50.05,0,0,1,12.79-5.23,53.21,53.21,0,0,1,9-1.43A21.84,21.84,0,0,0,480.77-89.89Z" transform="translate(-431.43 89.89)"/></svg>