<svg id="Layer_1" data-name="Layer 1" xmlns="http://www.w3.org/2000/svg" viewBox="0 0 100 99.94"><defs><style>.cls-1{fill:#fff;}</style></defs><title>Instagram_logo</title><path class="cls-1" d="M355.32-90.2h20.87a28.88,28.88,0,0,1,28,21.43,30.84,30.84,0,0,1,1,7.52c.1,14,.07,28.06,0,42.1A28.91,28.91,0,0,1,380.77,9.31a38,38,0,0,1-5.22.4q-20.42,0-40.84,0a28.47,28.47,0,0,1-18.28-6.25,27.89,27.89,0,0,1-11-22.3c-.17-14.25-.11-28.52,0-42.77a28.87,28.87,0,0,1,24.42-28.18,34.85,34.85,0,0,1,5-.4C341.63-90.22,348.47-90.2,355.32-90.2Zm41,49.83c0-6.88.05-13.76,0-20.64a20.13,20.13,0,0,0-20.44-20.23q-20.43,0-40.84,0a22.71,22.71,0,0,0-5.08.54,20,20,0,0,0-15.63,19.87c0,13.8,0,27.6,0,41.4a21.67,21.67,0,0,0,.81,5.61A19.93,19.93,0,0,0,334.59.75q20.88.1,41.75,0A20.48,20.48,0,0,0,381.61,0,20,20,0,0,0,396.3-19.38C396.33-26.37,396.31-33.37,396.31-40.37Z" transform="translate(-305.29 90.2)"/><path class="cls-1" d="M355.31-14.63A25.49,25.49,0,0,1,329.7-40.12a25.48,25.48,0,0,1,25.38-25.72,25.47,25.47,0,0,1,25.84,25.6A25.5,25.5,0,0,1,355.31-14.63ZM338.66-40.3a16.65,16.65,0,0,0,16.48,16.72A16.64,16.64,0,0,0,372-40.06a16.63,16.63,0,0,0-16.48-16.82A16.61,16.61,0,0,0,338.66-40.3Z" transform="translate(-305.29 90.2)"/><path class="cls-1" d="M381.93-61a5.92,5.92,0,0,1-5.87-6.23,5.93,5.93,0,0,1,6-5.67,6,6,0,0,1,5.93,6.3A5.93,5.93,0,0,1,381.93-61Z" transform="translate(-305.29 90.2)"/></svg>