<svg id="Layer_1" data-name="Layer 1" xmlns="http://www.w3.org/2000/svg" viewBox="0 0 100 95.06"><defs><style>.cls-1{fill:#fff;}</style></defs><title>X_Logo</title><path class="cls-1" d="M279.15,7.29h-.88q-14.06,0-28.1,0A1.27,1.27,0,0,1,249,6.72q-13.14-17.83-26.3-35.63l-.54-.69-3.46,3.69L194.36.13c-2.07,2.21-4.14,4.41-6.18,6.64a1.55,1.55,0,0,1-1.24.53c-2.3,0-4.61,0-6.92,0h-.87l39.23-42.06-39.13-53h.86q13.51,0,27,0a1.28,1.28,0,0,1,1.18.58q12.78,17.1,25.6,34.17c.19.26.39.5.62.81a5,5,0,0,0,.47-.42L258.76-78q4.37-4.68,8.75-9.36a1,1,0,0,1,.66-.33c2.68,0,5.36,0,8,0,0,0,.08,0,.2.12L238.44-47ZM267.07,1.07c-.24-.34-.39-.56-.55-.76Q252.81-18,239.09-36.27,222.55-58.35,206-80.43a1.44,1.44,0,0,0-1.31-.65c-4,0-8.07,0-12.1,0h-.88c.23.33.37.54.53.75Q214.5-50.4,236.77-20.48q7.8,10.5,15.62,21a1.26,1.26,0,0,0,.76.55C257.74,1.08,262.33,1.07,267.07,1.07Z" transform="translate(-179.15 87.77)"/></svg>